<?xml version="1.0" standalone="no"?>
<!DOCTYPE svg PUBLIC "-//W3C//DTD SVG 20010904//EN"
 "http://www.w3.org/TR/2001/REC-SVG-20010904/DTD/svg10.dtd">
<svg version="1.0" xmlns="http://www.w3.org/2000/svg"
 width="512.000000pt" height="512.000000pt" viewBox="0 0 512.000000 512.000000"
 preserveAspectRatio="xMidYMid meet">

<g transform="translate(0.000000,512.000000) scale(0.100000,-0.100000)"
fill="#000000" stroke="none">
<path d="M1024 4936 c-58 -26 -609 -387 -641 -420 -21 -23 -34 -48 -38 -79 -9
-56 10 -121 32 -113 12 5 641 409 801 514 51 34 52 36 35 55 -24 27 -91 57
-128 56 -16 0 -44 -6 -61 -13z"/>
<path d="M2095 4938 c-35 -20 -44 -41 -45 -100 l0 -58 510 0 510 0 0 58 c-1
60 -10 81 -47 100 -31 17 -899 16 -928 0z"/>
<path d="M3965 4931 c-22 -10 -48 -27 -58 -38 -17 -20 -11 -25 402 -292 231
-149 427 -274 434 -277 16 -6 37 42 37 85 -1 35 -32 101 -61 127 -35 31 -587
384 -626 400 -44 19 -80 17 -128 -5z"/>
<path d="M890 4450 c-228 -148 -416 -273 -418 -279 -6 -18 80 -142 94 -137 31
12 844 539 844 548 0 17 -82 138 -93 137 -7 0 -199 -121 -427 -269z"/>
<path d="M3750 4654 c-23 -36 -40 -70 -38 -75 3 -8 817 -535 843 -545 12 -5
95 114 95 135 0 10 -833 551 -848 551 -6 0 -29 -30 -52 -66z"/>
<path d="M2220 4525 l0 -85 340 0 340 0 0 85 0 85 -340 0 -340 0 0 -85z"/>
<path d="M1080 4159 c-283 -182 -520 -338 -527 -348 -7 -9 -13 -24 -13 -34 0
-28 848 -2798 871 -2844 18 -35 33 -48 85 -73 39 -18 73 -43 91 -66 25 -33 28
-47 33 -135 4 -85 8 -102 28 -121 l23 -23 889 0 889 0 23 23 c20 19 24 36 28
121 5 88 8 102 33 135 18 23 52 48 91 66 47 23 67 39 83 67 11 21 212 669 448
1440 384 1259 426 1405 416 1430 -9 22 -129 104 -517 353 -278 179 -514 329
-525 334 -16 8 -37 -9 -133 -102 l-114 -112 -722 0 -722 0 -112 110 c-62 61
-117 110 -122 110 -5 0 -241 -149 -524 -331z m820 -182 c83 -30 193 -100 241
-155 l32 -36 481 -93 481 -92 60 24 c116 45 221 55 338 30 335 -71 541 -400
457 -729 -35 -138 -119 -261 -228 -336 -47 -33 -58 -51 -243 -397 l-193 -362
-2 -123 c-2 -147 -24 -241 -84 -356 -95 -182 -243 -308 -445 -379 -74 -25 -91
-27 -235 -27 -144 0 -161 2 -235 27 -254 89 -435 279 -506 533 -31 108 -31
284 -1 397 l22 78 -187 443 -187 443 -50 26 c-169 89 -292 286 -303 487 -16
290 180 552 459 615 95 22 236 14 328 -18z"/>
<path d="M1606 3830 c-116 -30 -234 -130 -289 -247 -29 -62 -32 -77 -32 -163
0 -66 6 -111 18 -147 28 -79 98 -167 169 -214 87 -55 151 -72 259 -67 76 4 97
9 162 41 143 71 228 199 235 358 5 106 -12 171 -67 256 -45 70 -125 135 -203
165 -61 23 -192 32 -252 18z m223 -196 c120 -65 166 -210 105 -332 -48 -97
-136 -147 -243 -140 -75 6 -116 23 -164 72 -52 52 -72 101 -72 181 1 78 16
118 69 173 80 86 200 104 305 46z"/>
<path d="M1649 3471 c-31 -31 -36 -59 -17 -94 17 -33 39 -46 76 -47 87 -1 113
117 35 158 -35 19 -63 14 -94 -17z"/>
<path d="M2285 3568 c17 -53 17 -232 0 -297 -66 -255 -305 -451 -548 -451 -53
0 -59 -2 -54 -19 2 -11 62 -157 133 -325 l129 -305 60 62 c150 157 337 237
555 237 274 0 516 -135 655 -366 l33 -55 50 93 c137 255 172 322 172 330 0 4
-36 8 -79 8 -254 0 -492 193 -557 450 -12 48 -15 92 -11 170 6 125 30 204 92
296 35 52 40 64 26 68 -19 6 -645 126 -656 126 -4 0 -4 -10 0 -22z"/>
<path d="M3315 3486 c-126 -31 -230 -116 -287 -234 -31 -63 -33 -73 -33 -177
0 -103 2 -114 32 -177 53 -113 146 -196 262 -233 85 -28 217 -18 301 21 269
128 333 463 129 679 -105 111 -259 157 -404 121z m174 -172 c97 -29 181 -140
181 -241 0 -137 -117 -253 -254 -253 -155 0 -266 120 -254 273 6 71 23 111 69
156 72 73 159 95 258 65z"/>
<path d="M3362 3135 c-77 -65 -3 -175 93 -139 19 8 45 55 45 83 0 29 -40 70
-76 77 -24 4 -37 0 -62 -21z"/>
<path d="M2410 2285 c-266 -75 -443 -302 -444 -570 -1 -174 53 -307 173 -425
87 -87 165 -132 277 -160 141 -36 294 -18 427 52 93 49 206 165 249 258 47
100 62 167 62 275 -1 245 -164 473 -397 555 -82 30 -266 37 -347 15z m273
-261 c65 -22 149 -101 184 -172 24 -50 28 -68 28 -147 0 -109 -23 -163 -100
-241 -159 -160 -437 -113 -540 93 -27 51 -30 68 -30 148 0 71 5 100 22 137 24
53 90 128 138 158 80 49 196 59 298 24z"/>
<path d="M2495 1861 c-95 -44 -131 -141 -85 -231 31 -61 73 -85 150 -85 52 0
72 5 98 23 81 58 95 178 29 251 -27 29 -93 61 -127 61 -14 0 -43 -9 -65 -19z"/>
<path d="M365 3228 c-66 -33 -129 -68 -139 -77 -25 -21 -56 -89 -56 -123 0
-38 486 -1557 508 -1588 10 -14 34 -35 52 -47 31 -22 43 -23 198 -23 127 0
163 3 160 13 -2 6 -134 438 -293 960 -159 521 -294 947 -300 946 -5 0 -64 -27
-130 -61z"/>
<path d="M4325 2343 c-159 -522 -290 -954 -293 -960 -3 -10 33 -13 160 -13
155 0 167 1 198 23 18 12 42 33 52 47 21 29 508 1548 508 1586 0 31 -25 92
-48 117 -16 18 -262 147 -280 147 -4 0 -138 -426 -297 -947z"/>
<path d="M1790 284 c0 -48 4 -59 29 -85 l29 -29 711 0 710 0 27 23 c23 20 28
34 32 85 l4 62 -771 0 -771 0 0 -56z"/>
</g>
</svg>
